<?xml version="1.0" standalone="no"?>
<!DOCTYPE svg PUBLIC "-//W3C//DTD SVG 20010904//EN"
 "http://www.w3.org/TR/2001/REC-SVG-20010904/DTD/svg10.dtd">
<svg version="1.0" xmlns="http://www.w3.org/2000/svg"
 width="300.000000pt" height="300.000000pt" viewBox="0 0 300.000000 300.000000"
 preserveAspectRatio="xMidYMid meet">
<metadata>
Created by potrace 1.11, written by Peter Selinger 2001-2013
</metadata>
<g transform="translate(0.000000,300.000000) scale(0.100000,-0.100000)"
fill="#000000" stroke="none">
<path d="M0 1900 l0 -400 400 0 400 0 0 400 0 400 -400 0 -400 0 0 -400z"/>
<path d="M1100 1900 l0 -400 400 0 400 0 0 400 0 400 -400 0 -400 0 0 -400z"/>
<path d="M2200 1900 l0 -400 400 0 400 0 0 400 0 400 -400 0 -400 0 0 -400z"/>
<path d="M0 960 l0 -270 1500 0 1500 0 0 270 0 270 -1500 0 -1500 0 0 -270z"/>
</g>
</svg>
